<svg width="24" height="22" viewBox="0 0 24 22" fill="none" xmlns="http://www.w3.org/2000/svg">
<path d="M19.6363 6.00018C20.2388 6.00018 20.7272 5.51176 20.7272 4.90927C20.7272 4.30678 20.2388 3.81836 19.6363 3.81836C19.0338 3.81836 18.5454 4.30678 18.5454 4.90927C18.5454 5.51176 19.0338 6.00018 19.6363 6.00018Z" fill="#1F2D3D"/>
<path d="M15.2727 6.00018C15.8752 6.00018 16.3636 5.51176 16.3636 4.90927C16.3636 4.30678 15.8752 3.81836 15.2727 3.81836C14.6702 3.81836 14.1818 4.30678 14.1818 4.90927C14.1818 5.51176 14.6702 6.00018 15.2727 6.00018Z" fill="#1F2D3D"/>
<path d="M17.4436 7.63623C15.9381 7.63623 14.7163 8.55259 14.7163 9.68714H20.1709C20.1709 8.55259 18.949 7.63623 17.4436 7.63623Z" fill="#1F2D3D"/>
<path d="M0 15.2726C0 18.8835 2.93455 21.818 6.54545 21.818C10.1564 21.818 13.0909 18.8835 13.0909 15.2726V7.63623H0V15.2726ZM2.18182 9.81805H10.9091V15.2726C10.9091 17.6835 8.95636 19.6362 6.54545 19.6362C4.13455 19.6362 2.18182 17.6835 2.18182 15.2726V9.81805Z" fill="#1F2D3D"/>
<path d="M10.9091 0V6H13.0909V2.18182H21.8181V7.63636C21.8181 10.0473 19.8654 12 17.4545 12C16.4181 12 15.48 11.6182 14.7272 11.0182V13.5818C15.5563 13.9636 16.4836 14.1818 17.4545 14.1818C21.0654 14.1818 24 11.2473 24 7.63636V0H10.9091Z" fill="#1F2D3D"/>
<path d="M4.36361 13.6364C4.96611 13.6364 5.45452 13.148 5.45452 12.5455C5.45452 11.943 4.96611 11.4546 4.36361 11.4546C3.76112 11.4546 3.27271 11.943 3.27271 12.5455C3.27271 13.148 3.76112 13.6364 4.36361 13.6364Z" fill="#1F2D3D"/>
<path d="M8.72726 13.6364C9.32975 13.6364 9.81817 13.148 9.81817 12.5455C9.81817 11.943 9.32975 11.4546 8.72726 11.4546C8.12477 11.4546 7.63635 11.943 7.63635 12.5455C7.63635 13.148 8.12477 13.6364 8.72726 13.6364Z" fill="#1F2D3D"/>
<path d="M6.54551 17.3239C8.05096 17.3239 9.27278 16.4075 9.27278 15.2729H3.81824C3.81824 16.4075 5.04006 17.3239 6.54551 17.3239Z" fill="#1F2D3D"/>
</svg>
