<svg width="24" height="24" viewBox="0 0 24 24" fill="none" xmlns="http://www.w3.org/2000/svg">
<path d="M12 0C5.376 0 0 5.376 0 12C0 18.624 5.376 24 12 24C18.624 24 24 18.624 24 12C24 5.376 18.624 0 12 0ZM12 21.6C6.708 21.6 2.4 17.292 2.4 12C2.4 6.708 6.708 2.4 12 2.4C17.292 2.4 21.6 6.708 21.6 12C21.6 17.292 17.292 21.6 12 21.6ZM13.068 10.92C10.932 10.212 9.9 9.768 9.9 8.64C9.9 7.416 11.232 6.972 12.072 6.972C13.644 6.972 14.22 8.16 14.352 8.58L16.248 7.776C16.068 7.248 15.264 5.484 13.056 5.1V3.6H10.956V5.112C7.836 5.784 7.812 8.532 7.812 8.664C7.812 11.388 10.512 12.156 11.832 12.636C13.728 13.308 14.568 13.92 14.568 15.072C14.568 16.428 13.308 17.004 12.192 17.004C10.008 17.004 9.384 14.76 9.312 14.496L7.32 15.3C8.076 17.928 10.056 18.636 10.944 18.852V20.4H13.044V18.912C13.668 18.804 16.668 18.204 16.668 15.048C16.68 13.38 15.948 11.916 13.068 10.92Z" fill="#1F2D3D"/>
</svg>
