<svg width="19" height="24" viewBox="0 0 19 24" fill="none" xmlns="http://www.w3.org/2000/svg">
<path d="M16 8H14.8571V5.71429C14.8571 2.56 12.2971 0 9.14286 0C5.98857 0 3.42857 2.56 3.42857 5.71429V8H2.28571C1.02857 8 0 9.02857 0 10.2857V21.7143C0 22.9714 1.02857 24 2.28571 24H16C17.2571 24 18.2857 22.9714 18.2857 21.7143V10.2857C18.2857 9.02857 17.2571 8 16 8ZM5.71429 5.71429C5.71429 3.81714 7.24571 2.28571 9.14286 2.28571C11.04 2.28571 12.5714 3.81714 12.5714 5.71429V8H5.71429V5.71429ZM16 21.7143H2.28571V10.2857H16V21.7143ZM9.14286 18.2857C10.4 18.2857 11.4286 17.2571 11.4286 16C11.4286 14.7429 10.4 13.7143 9.14286 13.7143C7.88571 13.7143 6.85714 14.7429 6.85714 16C6.85714 17.2571 7.88571 18.2857 9.14286 18.2857Z" fill="#1F2D3D"/>
</svg>
